<?xml version="1.0" encoding="UTF-8"?>
<svg xmlns="http://www.w3.org/2000/svg" xmlns:xlink="http://www.w3.org/1999/xlink" width="263.62pt" height="140.22pt" viewBox="0 0 263.62 140.22">
<defs>
<g>
<g id="glyph-0-0">
<path d="M 4.25 -2.875 C 4.25 -3.46875 4.21875 -4.25 3.90625 -4.921875 C 3.5 -5.765625 2.828125 -5.96875 2.3125 -5.96875 C 1.765625 -5.96875 1.078125 -5.765625 0.6875 -4.890625 C 0.40625 -4.28125 0.359375 -3.546875 0.359375 -2.875 C 0.359375 -2.28125 0.375 -1.421875 0.765625 -0.703125 C 1.1875 0.046875 1.890625 0.203125 2.296875 0.203125 C 2.875 0.203125 3.546875 -0.046875 3.921875 -0.875 C 4.1875 -1.484375 4.25 -2.15625 4.25 -2.875 Z M 3.46875 -2.984375 C 3.46875 -2.421875 3.46875 -1.671875 3.375 -1.140625 C 3.1875 -0.109375 2.53125 -0.03125 2.3125 -0.03125 C 2.03125 -0.03125 1.390625 -0.15625 1.21875 -1.171875 C 1.125 -1.6875 1.125 -2.46875 1.125 -2.984375 C 1.125 -3.59375 1.125 -4.296875 1.234375 -4.796875 C 1.421875 -5.59375 1.984375 -5.75 2.296875 -5.75 C 2.640625 -5.75 3.203125 -5.5625 3.375 -4.734375 C 3.46875 -4.25 3.46875 -3.546875 3.46875 -2.984375 Z M 3.46875 -2.984375 "/>
</g>
<g id="glyph-0-1">
<path d="M 6.3125 -4.046875 L 6.140625 -6.078125 L 0.515625 -6.078125 L 0.328125 -4.046875 L 0.578125 -4.046875 C 0.703125 -5.53125 0.890625 -5.796875 2.234375 -5.796875 C 2.40625 -5.796875 2.65625 -5.796875 2.75 -5.78125 C 2.921875 -5.734375 2.921875 -5.65625 2.921875 -5.421875 L 2.921875 -0.71875 C 2.921875 -0.40625 2.921875 -0.28125 1.984375 -0.28125 L 1.625 -0.28125 L 1.625 0 C 1.953125 -0.03125 2.9375 -0.03125 3.328125 -0.03125 C 3.71875 -0.03125 4.703125 -0.03125 5.015625 0 L 5.015625 -0.28125 L 4.671875 -0.28125 C 3.734375 -0.28125 3.734375 -0.40625 3.734375 -0.71875 L 3.734375 -5.421875 C 3.734375 -5.65625 3.734375 -5.734375 3.921875 -5.78125 C 4.015625 -5.796875 4.25 -5.796875 4.40625 -5.796875 C 5.765625 -5.796875 5.9375 -5.53125 6.0625 -4.046875 Z M 6.3125 -4.046875 "/>
</g>
<g id="glyph-0-2">
<path d="M 2.265625 0 L 2.265625 -0.28125 C 1.6875 -0.28125 1.65625 -0.328125 1.65625 -0.671875 L 1.65625 -3.96875 L 0.359375 -3.859375 L 0.359375 -3.59375 C 0.9375 -3.59375 1.015625 -3.53125 1.015625 -3.09375 L 1.015625 -0.6875 C 1.015625 -0.28125 0.921875 -0.28125 0.328125 -0.28125 L 0.328125 0 C 0.71875 -0.015625 0.921875 -0.03125 1.3125 -0.03125 C 1.453125 -0.03125 1.828125 -0.03125 2.265625 0 Z M 1.765625 -5.40625 C 1.765625 -5.671875 1.546875 -5.890625 1.28125 -5.890625 C 1.015625 -5.890625 0.796875 -5.671875 0.796875 -5.40625 C 0.796875 -5.140625 1.015625 -4.921875 1.28125 -4.921875 C 1.546875 -4.921875 1.765625 -5.140625 1.765625 -5.40625 Z M 1.765625 -5.40625 "/>
</g>
<g id="glyph-0-3">
<path d="M 7.46875 0 L 7.46875 -0.28125 C 7.015625 -0.28125 6.796875 -0.28125 6.78125 -0.5625 L 6.78125 -2.28125 C 6.78125 -3.0625 6.78125 -3.3125 6.484375 -3.640625 C 6.296875 -3.859375 5.9375 -3.96875 5.53125 -3.96875 C 4.875 -3.96875 4.4375 -3.59375 4.1875 -3.109375 C 4.078125 -3.640625 3.71875 -3.96875 2.96875 -3.96875 C 2.25 -3.96875 1.8125 -3.5 1.625 -3.078125 L 1.609375 -3.078125 L 1.609375 -3.96875 L 0.3125 -3.859375 L 0.3125 -3.59375 C 0.921875 -3.59375 1 -3.53125 1 -3.078125 L 1 -0.6875 C 1 -0.28125 0.90625 -0.28125 0.3125 -0.28125 L 0.3125 0 C 0.734375 -0.015625 0.90625 -0.03125 1.34375 -0.03125 C 1.765625 -0.03125 1.890625 -0.015625 2.359375 0 L 2.359375 -0.28125 C 1.765625 -0.28125 1.671875 -0.28125 1.671875 -0.6875 L 1.671875 -2.328125 C 1.671875 -3.296875 2.375 -3.734375 2.90625 -3.734375 C 3.40625 -3.734375 3.5625 -3.390625 3.5625 -2.765625 L 3.5625 -0.6875 C 3.5625 -0.28125 3.46875 -0.28125 2.875 -0.28125 L 2.875 0 C 3.296875 -0.015625 3.46875 -0.03125 3.890625 -0.03125 C 4.328125 -0.03125 4.4375 -0.015625 4.921875 0 L 4.921875 -0.28125 C 4.328125 -0.28125 4.21875 -0.28125 4.21875 -0.6875 L 4.21875 -2.328125 C 4.21875 -3.296875 4.921875 -3.734375 5.46875 -3.734375 C 5.953125 -3.734375 6.109375 -3.390625 6.109375 -2.765625 L 6.109375 -0.6875 C 6.109375 -0.28125 6.015625 -0.28125 5.421875 -0.28125 L 5.421875 0 C 5.84375 -0.015625 6.015625 -0.03125 6.453125 -0.03125 C 6.875 -0.03125 7 -0.015625 7.46875 0 Z M 7.46875 0 "/>
</g>
<g id="glyph-0-4">
<path d="M 3.828125 -1.0625 C 3.828125 -1.125 3.78125 -1.1875 3.703125 -1.1875 C 3.609375 -1.1875 3.59375 -1.125 3.578125 -1.078125 C 3.28125 -0.171875 2.46875 -0.15625 2.34375 -0.15625 C 1.90625 -0.15625 1.546875 -0.390625 1.34375 -0.703125 C 1.046875 -1.140625 1.03125 -1.671875 1.03125 -2.046875 L 3.59375 -2.046875 C 3.78125 -2.046875 3.828125 -2.046875 3.828125 -2.25 C 3.828125 -3.171875 3.328125 -4.015625 2.171875 -4.015625 C 1.109375 -4.015625 0.265625 -3.078125 0.265625 -1.96875 C 0.265625 -0.796875 1.203125 0.09375 2.296875 0.09375 C 3.390625 0.09375 3.828125 -0.859375 3.828125 -1.0625 Z M 3.21875 -2.265625 L 1.046875 -2.265625 C 1.125 -3.65625 1.921875 -3.796875 2.171875 -3.796875 C 2.671875 -3.796875 3.203125 -3.421875 3.21875 -2.265625 Z M 3.21875 -2.265625 "/>
</g>
<g id="glyph-1-0">
<path d="M 4.25 -2.875 C 4.25 -3.46875 4.21875 -4.25 3.90625 -4.921875 C 3.5 -5.765625 2.828125 -5.96875 2.3125 -5.96875 C 1.765625 -5.96875 1.078125 -5.765625 0.6875 -4.890625 C 0.40625 -4.28125 0.359375 -3.546875 0.359375 -2.875 C 0.359375 -2.28125 0.375 -1.421875 0.765625 -0.703125 C 1.1875 0.046875 1.890625 0.203125 2.296875 0.203125 C 2.875 0.203125 3.546875 -0.046875 3.921875 -0.875 C 4.1875 -1.484375 4.25 -2.15625 4.25 -2.875 Z M 2.3125 -0.03125 C 2.03125 -0.03125 1.390625 -0.15625 1.21875 -1.171875 C 1.125 -1.6875 1.125 -2.46875 1.125 -2.984375 C 1.125 -3.59375 1.125 -4.296875 1.234375 -4.796875 C 1.421875 -5.59375 1.984375 -5.75 2.296875 -5.75 C 2.640625 -5.75 3.203125 -5.5625 3.375 -4.734375 C 3.46875 -4.25 3.46875 -3.546875 3.46875 -2.984375 C 3.46875 -2.421875 3.46875 -1.671875 3.375 -1.140625 C 3.1875 -0.109375 2.53125 -0.03125 2.3125 -0.03125 Z M 2.3125 -0.03125 "/>
</g>
<g id="glyph-1-1">
<path d="M 3.40625 -2.828125 L 3.40625 -2.625 C 3.40625 -0.4375 2.40625 -0.046875 1.890625 -0.046875 C 1.6875 -0.046875 1.234375 -0.09375 1 -0.390625 L 1.03125 -0.390625 C 1.109375 -0.375 1.453125 -0.4375 1.453125 -0.796875 C 1.453125 -1.03125 1.296875 -1.203125 1.046875 -1.203125 C 0.796875 -1.203125 0.625 -1.046875 0.625 -0.78125 C 0.625 -0.1875 1.09375 0.203125 1.90625 0.203125 C 3.0625 0.203125 4.21875 -0.984375 4.21875 -2.953125 C 4.21875 -5.375 3.140625 -5.96875 2.328125 -5.96875 C 1.296875 -5.96875 0.390625 -5.140625 0.390625 -3.96875 C 0.390625 -2.828125 1.203125 -1.96875 2.21875 -1.96875 C 2.875 -1.96875 3.234375 -2.4375 3.40625 -2.828125 Z M 2.25 -2.1875 C 2.09375 -2.1875 1.65625 -2.1875 1.375 -2.75 C 1.203125 -3.078125 1.203125 -3.53125 1.203125 -3.953125 C 1.203125 -4.390625 1.203125 -4.828125 1.390625 -5.171875 C 1.65625 -5.625 2.015625 -5.75 2.328125 -5.75 C 2.9375 -5.75 3.1875 -5.125 3.21875 -5.046875 C 3.34375 -4.703125 3.375 -4.15625 3.375 -3.78125 C 3.375 -3.125 3.078125 -2.1875 2.25 -2.1875 Z M 2.25 -2.1875 "/>
</g>
<g id="glyph-2-0">
<path d="M 1.765625 -0.484375 C 1.765625 -0.75 1.546875 -0.96875 1.28125 -0.96875 C 1 -0.96875 0.796875 -0.75 0.796875 -0.484375 C 0.796875 -0.21875 1 0 1.28125 0 C 1.546875 0 1.765625 -0.21875 1.765625 -0.484375 Z M 1.765625 -0.484375 "/>
</g>
<g id="glyph-2-1">
<path d="M 4.171875 -4.4375 C 4.171875 -5.359375 3.875 -6.328125 3.046875 -6.328125 C 1.734375 -6.328125 0.375 -3.765625 0.375 -1.78125 C 0.375 -1.125 0.5625 0.09375 1.5 0.09375 C 2.8125 0.09375 4.171875 -2.4375 4.171875 -4.4375 Z M 1.34375 -3.25 C 1.53125 -3.96875 1.71875 -4.625 2.078125 -5.234375 C 2.296875 -5.59375 2.625 -6.09375 3.046875 -6.09375 C 3.53125 -6.09375 3.5625 -5.328125 3.5625 -4.984375 C 3.5625 -4.453125 3.421875 -3.828125 3.28125 -3.25 Z M 3.203125 -2.96875 C 3.0625 -2.40625 2.890625 -1.734375 2.53125 -1.09375 C 2.296875 -0.671875 1.9375 -0.125 1.5 -0.125 C 1.125 -0.125 1 -0.59375 1 -1.25 C 1 -1.828125 1.140625 -2.40625 1.28125 -2.96875 Z M 3.203125 -2.96875 "/>
</g>
<g id="glyph-3-0">
<path d="M 2.78125 -0.84375 C 2.9375 -0.734375 2.953125 -0.734375 2.984375 -0.734375 C 3.09375 -0.734375 3.1875 -0.828125 3.1875 -0.953125 C 3.1875 -1.0625 3.09375 -1.09375 3.046875 -1.125 C 2.75 -1.25 2.4375 -1.375 2.125 -1.484375 C 2.734375 -1.734375 2.90625 -1.796875 3.015625 -1.84375 C 3.109375 -1.890625 3.1875 -1.921875 3.1875 -2.046875 C 3.1875 -2.15625 3.09375 -2.25 2.984375 -2.25 C 2.9375 -2.25 2.90625 -2.21875 2.859375 -2.203125 L 2.015625 -1.65625 C 2.015625 -1.734375 2.046875 -1.953125 2.046875 -2.015625 C 2.0625 -2.140625 2.109375 -2.5 2.109375 -2.609375 C 2.109375 -2.703125 2.015625 -2.78125 1.90625 -2.78125 C 1.8125 -2.78125 1.71875 -2.703125 1.71875 -2.609375 C 1.71875 -2.59375 1.765625 -2.046875 1.765625 -2.03125 C 1.78125 -1.96875 1.796875 -1.734375 1.8125 -1.65625 L 0.953125 -2.203125 C 0.90625 -2.21875 0.875 -2.25 0.828125 -2.25 C 0.71875 -2.25 0.625 -2.15625 0.625 -2.046875 C 0.625 -1.921875 0.71875 -1.890625 0.765625 -1.859375 C 1.078125 -1.734375 1.375 -1.609375 1.6875 -1.5 C 1.078125 -1.25 0.90625 -1.1875 0.796875 -1.140625 C 0.71875 -1.09375 0.625 -1.0625 0.625 -0.953125 C 0.625 -0.828125 0.71875 -0.734375 0.828125 -0.734375 C 0.875 -0.734375 0.96875 -0.796875 1.046875 -0.84375 C 1.125 -0.890625 1.328125 -1.03125 1.40625 -1.078125 C 1.609375 -1.203125 1.6875 -1.25 1.8125 -1.328125 C 1.796875 -1.25 1.78125 -1.03125 1.765625 -0.96875 L 1.71875 -0.390625 C 1.71875 -0.28125 1.8125 -0.203125 1.90625 -0.203125 C 2.015625 -0.203125 2.109375 -0.28125 2.109375 -0.390625 C 2.109375 -0.390625 2.046875 -0.921875 2.046875 -0.953125 C 2.046875 -1.015625 2.015625 -1.25 2.015625 -1.328125 Z M 2.78125 -0.84375 "/>
</g>
<g id="glyph-4-0">
<path d="M 3.046875 -1.03125 C 3.046875 -1.40625 2.828125 -1.96875 1.875 -2.140625 C 1.8125 -2.15625 1.359375 -2.234375 1.328125 -2.234375 C 1.078125 -2.296875 0.703125 -2.46875 0.703125 -2.78125 C 0.703125 -3.015625 0.890625 -3.359375 1.640625 -3.359375 C 2.53125 -3.359375 2.578125 -2.703125 2.59375 -2.484375 C 2.59375 -2.421875 2.65625 -2.390625 2.703125 -2.390625 C 2.84375 -2.390625 2.84375 -2.453125 2.84375 -2.59375 L 2.84375 -3.34375 C 2.84375 -3.46875 2.84375 -3.546875 2.734375 -3.546875 C 2.6875 -3.546875 2.671875 -3.546875 2.546875 -3.421875 C 2.53125 -3.421875 2.453125 -3.34375 2.4375 -3.34375 C 2.4375 -3.34375 2.40625 -3.34375 2.359375 -3.375 C 2.234375 -3.46875 2 -3.546875 1.640625 -3.546875 C 0.53125 -3.546875 0.28125 -2.953125 0.28125 -2.5625 C 0.28125 -2.171875 0.578125 -1.9375 0.59375 -1.90625 C 0.921875 -1.671875 1.09375 -1.640625 1.640625 -1.546875 C 2.015625 -1.46875 2.625 -1.359375 2.625 -0.828125 C 2.625 -0.515625 2.421875 -0.140625 1.6875 -0.140625 C 0.875 -0.140625 0.640625 -0.765625 0.546875 -1.1875 C 0.515625 -1.296875 0.5 -1.328125 0.40625 -1.328125 C 0.28125 -1.328125 0.28125 -1.265625 0.28125 -1.109375 L 0.28125 -0.125 C 0.28125 0 0.28125 0.078125 0.375 0.078125 C 0.4375 0.078125 0.4375 0.078125 0.578125 -0.078125 C 0.625 -0.125 0.703125 -0.21875 0.75 -0.265625 C 1.109375 0.0625 1.484375 0.078125 1.6875 0.078125 C 2.703125 0.078125 3.046875 -0.5 3.046875 -1.03125 Z M 3.046875 -1.03125 "/>
</g>
<g id="glyph-4-1">
<path d="M 3.515625 -0.953125 C 3.515625 -0.984375 3.484375 -1.0625 3.390625 -1.0625 C 3.296875 -1.0625 3.28125 -1.015625 3.265625 -0.96875 C 2.984375 -0.1875 2.296875 -0.171875 2.15625 -0.171875 C 1.796875 -0.171875 1.421875 -0.328125 1.1875 -0.703125 C 0.953125 -1.0625 0.953125 -1.578125 0.953125 -1.8125 L 3.296875 -1.8125 C 3.46875 -1.8125 3.515625 -1.8125 3.515625 -2 C 3.515625 -2.703125 3.125 -3.546875 2 -3.546875 C 1.015625 -3.546875 0.234375 -2.734375 0.234375 -1.75 C 0.234375 -0.71875 1.09375 0.078125 2.109375 0.078125 C 3.109375 0.078125 3.515625 -0.765625 3.515625 -0.953125 Z M 2.96875 -2.03125 L 0.953125 -2.03125 C 1.03125 -3.140625 1.703125 -3.328125 2 -3.328125 C 2.9375 -3.328125 2.96875 -2.203125 2.96875 -2.03125 Z M 2.96875 -2.03125 "/>
</g>
<g id="glyph-4-2">
<path d="M 2.8125 -1 L 2.8125 -1.4375 L 2.5625 -1.4375 L 2.5625 -1.015625 C 2.5625 -0.46875 2.3125 -0.171875 2.015625 -0.171875 C 1.484375 -0.171875 1.484375 -0.859375 1.484375 -0.984375 L 1.484375 -3.171875 L 2.671875 -3.171875 L 2.671875 -3.4375 L 1.484375 -3.4375 L 1.484375 -4.90625 L 1.234375 -4.90625 C 1.234375 -4.171875 0.90625 -3.421875 0.15625 -3.390625 L 0.15625 -3.171875 L 0.875 -3.171875 L 0.875 -1 C 0.875 -0.0625 1.59375 0.078125 1.953125 0.078125 C 2.5 0.078125 2.8125 -0.390625 2.8125 -1 Z M 2.8125 -1 "/>
</g>
<g id="glyph-4-3">
<path d="M 2.125 0 L 2.125 -0.265625 C 1.625 -0.265625 1.515625 -0.265625 1.515625 -0.625 L 1.515625 -5.53125 L 0.328125 -5.4375 L 0.328125 -5.171875 C 0.875 -5.171875 0.9375 -5.125 0.9375 -4.734375 L 0.9375 -0.625 C 0.9375 -0.265625 0.84375 -0.265625 0.328125 -0.265625 L 0.328125 0 C 0.640625 -0.03125 1.09375 -0.03125 1.234375 -0.03125 C 1.390625 -0.03125 1.8125 -0.03125 2.125 0 Z M 2.125 0 "/>
</g>
<g id="glyph-4-4">
<path d="M 6.828125 0 L 6.828125 -0.265625 C 6.3125 -0.265625 6.21875 -0.265625 6.21875 -0.625 L 6.21875 -2.421875 C 6.21875 -3.0625 5.9375 -3.515625 5.078125 -3.515625 C 4.34375 -3.515625 3.96875 -3.015625 3.84375 -2.78125 C 3.703125 -3.359375 3.25 -3.515625 2.734375 -3.515625 C 1.953125 -3.515625 1.59375 -2.96875 1.484375 -2.75 L 1.484375 -3.515625 L 0.328125 -3.421875 L 0.328125 -3.15625 C 0.875 -3.15625 0.9375 -3.109375 0.9375 -2.71875 L 0.9375 -0.625 C 0.9375 -0.265625 0.84375 -0.265625 0.328125 -0.265625 L 0.328125 0 C 0.671875 -0.03125 1.015625 -0.03125 1.234375 -0.03125 C 1.46875 -0.03125 1.796875 -0.03125 2.140625 0 L 2.140625 -0.265625 C 1.640625 -0.265625 1.53125 -0.265625 1.53125 -0.625 L 1.53125 -2.0625 C 1.53125 -2.90625 2.171875 -3.296875 2.671875 -3.296875 C 3.1875 -3.296875 3.28125 -2.890625 3.28125 -2.453125 L 3.28125 -0.625 C 3.28125 -0.265625 3.171875 -0.265625 2.671875 -0.265625 L 2.671875 0 C 3.015625 -0.03125 3.359375 -0.03125 3.578125 -0.03125 C 3.8125 -0.03125 4.140625 -0.03125 4.484375 0 L 4.484375 -0.265625 C 3.96875 -0.265625 3.875 -0.265625 3.875 -0.625 L 3.875 -2.0625 C 3.875 -2.90625 4.515625 -3.296875 5.015625 -3.296875 C 5.53125 -3.296875 5.625 -2.890625 5.625 -2.453125 L 5.625 -0.625 C 5.625 -0.265625 5.515625 -0.265625 5.015625 -0.265625 L 5.015625 0 C 5.359375 -0.03125 5.703125 -0.03125 5.921875 -0.03125 C 6.15625 -0.03125 6.484375 -0.03125 6.828125 0 Z M 6.828125 0 "/>
</g>
<g id="glyph-4-5">
<path d="M 4.484375 0 L 4.484375 -0.265625 C 3.96875 -0.265625 3.875 -0.265625 3.875 -0.625 L 3.875 -2.421875 C 3.875 -3.078125 3.5625 -3.515625 2.734375 -3.515625 C 1.9375 -3.515625 1.578125 -2.9375 1.484375 -2.75 L 1.484375 -3.515625 L 0.328125 -3.421875 L 0.328125 -3.15625 C 0.875 -3.15625 0.9375 -3.109375 0.9375 -2.71875 L 0.9375 -0.625 C 0.9375 -0.265625 0.84375 -0.265625 0.328125 -0.265625 L 0.328125 0 C 0.671875 -0.03125 1.015625 -0.03125 1.234375 -0.03125 C 1.46875 -0.03125 1.796875 -0.03125 2.140625 0 L 2.140625 -0.265625 C 1.640625 -0.265625 1.53125 -0.265625 1.53125 -0.625 L 1.53125 -2.0625 C 1.53125 -2.90625 2.171875 -3.296875 2.65625 -3.296875 C 3.140625 -3.296875 3.265625 -2.953125 3.265625 -2.453125 L 3.265625 -0.625 C 3.265625 -0.265625 3.171875 -0.265625 2.65625 -0.265625 L 2.65625 0 C 3 -0.03125 3.359375 -0.03125 3.5625 -0.03125 C 3.796875 -0.03125 4.140625 -0.03125 4.484375 0 Z M 4.484375 0 "/>
</g>
<g id="glyph-4-6">
<path d="M 5.9375 -3.171875 L 5.9375 -3.4375 C 5.671875 -3.40625 5.65625 -3.40625 5.3125 -3.40625 C 5.0625 -3.40625 4.84375 -3.40625 4.59375 -3.4375 L 4.59375 -3.171875 C 4.9375 -3.15625 5.03125 -2.953125 5.03125 -2.8125 C 5.03125 -2.703125 5 -2.65625 4.984375 -2.609375 L 4.234375 -0.625 L 3.40625 -2.796875 C 3.375 -2.90625 3.375 -2.921875 3.375 -2.953125 C 3.375 -3.15625 3.625 -3.171875 3.8125 -3.171875 L 3.8125 -3.4375 C 3.5 -3.40625 3.078125 -3.40625 3 -3.40625 C 2.828125 -3.40625 2.5 -3.40625 2.265625 -3.4375 L 2.265625 -3.171875 C 2.75 -3.171875 2.765625 -3.125 2.921875 -2.703125 L 2.1875 -0.734375 L 1.390625 -2.8125 C 1.390625 -2.84375 1.359375 -2.921875 1.359375 -2.953125 C 1.359375 -3.171875 1.65625 -3.171875 1.796875 -3.171875 L 1.796875 -3.4375 C 1.453125 -3.40625 1.09375 -3.40625 0.953125 -3.40625 C 0.8125 -3.40625 0.390625 -3.40625 0.171875 -3.4375 L 0.171875 -3.171875 C 0.5625 -3.171875 0.640625 -3.140625 0.734375 -2.921875 L 1.796875 -0.109375 C 1.84375 0.015625 1.875 0.078125 2 0.078125 C 2.140625 0.078125 2.171875 -0.015625 2.203125 -0.109375 L 3.046875 -2.34375 L 3.890625 -0.109375 C 3.9375 -0.015625 3.96875 0.078125 4.109375 0.078125 C 4.234375 0.078125 4.265625 0 4.296875 -0.09375 L 5.265625 -2.625 C 5.328125 -2.8125 5.46875 -3.15625 5.9375 -3.171875 Z M 5.9375 -3.171875 "/>
</g>
<g id="glyph-4-7">
<path d="M 2.078125 0 L 2.078125 -0.265625 C 1.546875 -0.265625 1.515625 -0.296875 1.515625 -0.609375 L 1.515625 -3.515625 L 0.359375 -3.421875 L 0.359375 -3.15625 C 0.875 -3.15625 0.9375 -3.109375 0.9375 -2.71875 L 0.9375 -0.625 C 0.9375 -0.265625 0.84375 -0.265625 0.328125 -0.265625 L 0.328125 0 C 0.640625 -0.03125 1.09375 -0.03125 1.21875 -0.03125 C 1.3125 -0.03125 1.796875 -0.03125 2.078125 0 Z M 1.625 -4.796875 C 1.625 -5.0625 1.40625 -5.25 1.171875 -5.25 C 0.953125 -5.25 0.734375 -5.0625 0.734375 -4.796875 C 0.734375 -4.5625 0.921875 -4.359375 1.171875 -4.359375 C 1.421875 -4.359375 1.625 -4.5625 1.625 -4.796875 Z M 1.625 -4.796875 "/>
</g>
<g id="glyph-4-8">
<path d="M 4.421875 0 L 4.421875 -0.265625 C 3.875 -0.265625 3.8125 -0.3125 3.8125 -0.703125 L 3.8125 -5.53125 L 2.625 -5.4375 L 2.625 -5.171875 C 3.15625 -5.171875 3.234375 -5.125 3.234375 -4.734375 L 3.234375 -3.046875 C 2.953125 -3.359375 2.578125 -3.515625 2.15625 -3.515625 C 1.15625 -3.515625 0.28125 -2.734375 0.28125 -1.71875 C 0.28125 -0.734375 1.078125 0.078125 2.078125 0.078125 C 2.546875 0.078125 2.9375 -0.140625 3.203125 -0.421875 L 3.203125 0.078125 Z M 3.203125 -0.984375 C 3.203125 -0.84375 3.203125 -0.8125 3.078125 -0.65625 C 2.859375 -0.328125 2.5 -0.140625 2.125 -0.140625 C 1.75 -0.140625 1.4375 -0.328125 1.25 -0.625 C 1.03125 -0.9375 0.984375 -1.328125 0.984375 -1.703125 C 0.984375 -2.171875 1.0625 -2.5 1.25 -2.765625 C 1.4375 -3.0625 1.796875 -3.296875 2.203125 -3.296875 C 2.578125 -3.296875 2.96875 -3.09375 3.203125 -2.6875 Z M 3.203125 -0.984375 "/>
</g>
<g id="glyph-4-9">
<path d="M 3.984375 -1.703125 C 3.984375 -2.6875 3.15625 -3.546875 2.109375 -3.546875 C 1.0625 -3.546875 0.234375 -2.6875 0.234375 -1.703125 C 0.234375 -0.703125 1.09375 0.078125 2.109375 0.078125 C 3.140625 0.078125 3.984375 -0.703125 3.984375 -1.703125 Z M 3.28125 -1.765625 C 3.28125 -1.40625 3.265625 -0.96875 3.03125 -0.625 C 2.828125 -0.3125 2.46875 -0.171875 2.109375 -0.171875 C 1.6875 -0.171875 1.34375 -0.375 1.171875 -0.65625 C 0.96875 -0.984375 0.953125 -1.375 0.953125 -1.765625 C 0.953125 -2.078125 0.953125 -2.546875 1.1875 -2.890625 C 1.40625 -3.171875 1.734375 -3.328125 2.109375 -3.328125 C 2.53125 -3.328125 2.875 -3.125 3.046875 -2.859375 C 3.265625 -2.515625 3.28125 -2.09375 3.28125 -1.765625 Z M 3.28125 -1.765625 "/>
</g>
<g id="glyph-5-0">
<path d="M -0.796875 -6.75 C -0.859375 -6.75 -0.953125 -6.75 -0.953125 -6.625 C -0.953125 -6.5 -0.875 -6.5 -0.8125 -6.5 C -0.234375 -6.453125 -0.03125 -6.171875 -0.03125 -5.890625 C -0.03125 -5.609375 -0.203125 -5.5 -0.359375 -5.4375 C -0.5625 -5.359375 -1.171875 -5.28125 -1.5625 -5.21875 C -2.125 -5.140625 -2.71875 -5.0625 -3.046875 -4.078125 C -3.28125 -4.921875 -3.8125 -5.625 -4.515625 -5.625 C -5.40625 -5.625 -6.125 -4.53125 -6.125 -3.21875 L -6.125 -0.359375 L -5.84375 -0.359375 L -5.84375 -0.5625 C -5.84375 -1.25 -5.75 -1.28125 -5.421875 -1.28125 L -0.703125 -1.28125 C -0.375 -1.28125 -0.28125 -1.25 -0.28125 -0.5625 L -0.28125 -0.359375 L 0 -0.359375 C -0.03125 -0.78125 -0.03125 -1.234375 -0.03125 -1.65625 C -0.03125 -2.09375 -0.03125 -2.53125 0 -2.96875 L -0.28125 -2.96875 L -0.28125 -2.765625 C -0.28125 -2.078125 -0.375 -2.046875 -0.703125 -2.046875 L -2.953125 -2.046875 L -2.953125 -3.125 C -2.953125 -3.78125 -2.609375 -4.0625 -2.578125 -4.09375 C -2.25 -4.375 -2.109375 -4.375 -1.46875 -4.375 C -0.875 -4.375 -0.46875 -4.375 -0.140625 -4.796875 C 0.203125 -5.21875 0.203125 -5.765625 0.203125 -5.859375 C 0.203125 -6.609375 -0.578125 -6.75 -0.796875 -6.75 Z M -4.515625 -4.703125 C -3.734375 -4.703125 -3.171875 -4.3125 -3.171875 -3.09375 L -3.171875 -2.046875 L -5.484375 -2.046875 C -5.71875 -2.046875 -5.796875 -2.078125 -5.828125 -2.25 C -5.84375 -2.328125 -5.84375 -2.609375 -5.84375 -2.796875 C -5.84375 -3.5625 -5.84375 -4.703125 -4.515625 -4.703125 Z M -4.515625 -4.703125 "/>
</g>
<g id="glyph-5-1">
<path d="M -1.90625 -4.34375 C -3.078125 -4.34375 -4.015625 -3.40625 -4.015625 -2.3125 C -4.015625 -1.171875 -3.0625 -0.265625 -1.90625 -0.265625 C -0.796875 -0.265625 0.09375 -1.1875 0.09375 -2.296875 C 0.09375 -3.4375 -0.8125 -4.34375 -1.90625 -4.34375 Z M -1.984375 -3.5625 C -1.65625 -3.5625 -1.140625 -3.5625 -0.75 -3.34375 C -0.328125 -3.09375 -0.15625 -2.6875 -0.15625 -2.3125 C -0.15625 -1.859375 -0.375 -1.484375 -0.71875 -1.28125 C -1.109375 -1.046875 -1.578125 -1.03125 -1.984375 -1.03125 C -2.328125 -1.03125 -2.828125 -1.03125 -3.203125 -1.25 C -3.65625 -1.53125 -3.796875 -1.96875 -3.796875 -2.296875 C -3.796875 -2.8125 -3.5 -3.171875 -3.203125 -3.359375 C -2.828125 -3.5625 -2.375 -3.5625 -1.984375 -3.5625 Z M -1.984375 -3.5625 "/>
</g>
<g id="glyph-5-2">
<path d="M -1.109375 -3.0625 L -1.625 -3.0625 L -1.625 -2.8125 L -1.140625 -2.8125 C -0.46875 -2.8125 -0.15625 -2.53125 -0.15625 -2.21875 C -0.15625 -1.609375 -0.9375 -1.609375 -1.109375 -1.609375 L -3.59375 -1.609375 L -3.59375 -2.921875 L -3.859375 -2.921875 L -3.859375 -1.609375 L -5.515625 -1.609375 L -5.515625 -1.359375 C -4.765625 -1.359375 -3.84375 -1.046875 -3.8125 -0.171875 L -3.59375 -0.171875 L -3.59375 -0.953125 L -1.109375 -0.953125 C -0.109375 -0.953125 0.09375 -1.671875 0.09375 -2.15625 C 0.09375 -2.75 -0.46875 -3.0625 -1.109375 -3.0625 Z M -1.109375 -3.0625 "/>
</g>
<g id="glyph-5-3">
<path d="M -3.40625 -3.34375 C -3.6875 -3.34375 -3.96875 -3.078125 -3.96875 -2.671875 C -3.96875 -2.140625 -3.59375 -1.765625 -3.03125 -1.546875 L -3.96875 -1.546875 L -3.859375 -0.265625 L -3.59375 -0.265625 C -3.59375 -0.875 -3.53125 -0.953125 -3.078125 -0.953125 L -0.6875 -0.953125 C -0.28125 -0.953125 -0.28125 -0.859375 -0.28125 -0.265625 L 0 -0.265625 C -0.015625 -0.75 -0.03125 -0.859375 -0.03125 -1.3125 L 0 -2.453125 L -0.28125 -2.453125 L -0.28125 -2.28125 C -0.28125 -1.625 -0.375 -1.59375 -0.703125 -1.59375 L -2.046875 -1.59375 C -2.421875 -1.59375 -3.734375 -1.6875 -3.734375 -2.71875 C -3.71875 -2.703125 -3.609375 -2.5625 -3.40625 -2.5625 C -3.15625 -2.5625 -3 -2.75 -3 -2.953125 C -3 -3.140625 -3.140625 -3.34375 -3.40625 -3.34375 Z M -3.40625 -3.34375 "/>
</g>
<g id="glyph-5-4">
<path d="M -0.796875 -4.453125 L -1.296875 -4.453125 L -1.296875 -4.203125 L -0.8125 -4.203125 C -0.703125 -4.203125 -0.265625 -4.203125 -0.265625 -3.890625 C -0.265625 -3.5625 -0.6875 -3.5625 -0.828125 -3.5625 L -2.40625 -3.5625 C -2.921875 -3.5625 -3.21875 -3.5625 -3.59375 -3.15625 C -3.890625 -2.828125 -4.015625 -2.390625 -4.015625 -1.953125 C -4.015625 -1.1875 -3.640625 -0.5625 -3.0625 -0.5625 C -2.796875 -0.5625 -2.640625 -0.75 -2.640625 -0.984375 C -2.640625 -1.234375 -2.8125 -1.40625 -3.046875 -1.40625 C -3.4375 -1.40625 -3.484375 -1 -3.484375 -1 C -3.71875 -1.234375 -3.796875 -1.671875 -3.796875 -1.921875 C -3.796875 -2.390625 -3.453125 -2.890625 -2.65625 -2.890625 L -2.375 -2.890625 C -2.34375 -2.40625 -2.3125 -1.734375 -2.015625 -1.140625 C -1.703125 -0.5 -1.234375 -0.296875 -0.875 -0.296875 C -0.140625 -0.296875 0.09375 -1.171875 0.09375 -1.765625 C 0.09375 -2.515625 -0.390625 -2.859375 -0.640625 -2.984375 C -0.265625 -3.015625 0.046875 -3.28125 0.046875 -3.671875 C 0.046875 -3.890625 -0.078125 -4.453125 -0.796875 -4.453125 Z M -1.265625 -2.890625 C -0.390625 -2.890625 -0.125 -2.21875 -0.125 -1.828125 C -0.125 -1.40625 -0.4375 -1.015625 -0.875 -1.015625 C -1.46875 -1.015625 -2.09375 -1.53125 -2.15625 -2.890625 Z M -1.265625 -2.890625 "/>
</g>
<g id="glyph-5-5">
<path d="M 0 -4.90625 L -0.28125 -4.90625 C -0.28125 -4.453125 -0.28125 -4.21875 -0.5625 -4.21875 L -2.28125 -4.21875 C -3.015625 -4.21875 -3.28125 -4.21875 -3.59375 -3.96875 C -3.84375 -3.765625 -3.96875 -3.421875 -3.96875 -2.96875 C -3.96875 -2.140625 -3.34375 -1.75 -3.09375 -1.625 L -3.09375 -1.609375 L -3.96875 -1.609375 L -3.859375 -0.3125 L -3.59375 -0.3125 C -3.59375 -0.921875 -3.53125 -1 -3.078125 -1 L -0.6875 -1 C -0.28125 -1 -0.28125 -0.90625 -0.28125 -0.3125 L 0 -0.3125 C -0.015625 -0.734375 -0.03125 -0.90625 -0.03125 -1.34375 C -0.03125 -1.765625 -0.015625 -1.890625 0 -2.359375 L -0.28125 -2.359375 C -0.28125 -1.765625 -0.28125 -1.671875 -0.6875 -1.671875 L -2.328125 -1.671875 C -3.28125 -1.671875 -3.734375 -2.34375 -3.734375 -2.90625 C -3.734375 -3.4375 -3.296875 -3.546875 -2.765625 -3.546875 L -0.6875 -3.546875 C -0.28125 -3.546875 -0.28125 -3.453125 -0.28125 -2.859375 L 0 -2.859375 C -0.015625 -3.28125 -0.03125 -3.453125 -0.03125 -3.890625 C -0.03125 -4.3125 -0.015625 -4.4375 0 -4.90625 Z M 0 -4.90625 "/>
</g>
<g id="glyph-5-6">
<path d="M -3.609375 -4.46875 C -3.78125 -4.46875 -4.0625 -4.34375 -4.0625 -3.984375 C -4.0625 -3.734375 -3.96875 -3.328125 -3.640625 -3.015625 C -3.84375 -2.765625 -3.96875 -2.421875 -3.96875 -2.046875 C -3.96875 -1.1875 -3.359375 -0.546875 -2.640625 -0.546875 C -2.1875 -0.546875 -1.859375 -0.8125 -1.734375 -0.953125 C -1.71875 -0.9375 -1.40625 -0.6875 -0.984375 -0.6875 C -0.6875 -0.6875 -0.359375 -0.828125 -0.203125 -1.078125 C -0.046875 -0.625 0.28125 -0.265625 0.703125 -0.265625 C 1.34375 -0.265625 1.84375 -1.140625 1.84375 -2.296875 C 1.84375 -3.40625 1.375 -4.34375 0.6875 -4.34375 C 0.3125 -4.34375 -0.078125 -4.171875 -0.296875 -3.84375 C -0.609375 -3.34375 -0.609375 -2.8125 -0.609375 -1.96875 C -0.609375 -1.78125 -0.609375 -1.5 -0.625 -1.421875 C -0.6875 -1.171875 -0.921875 -1 -1.203125 -1 C -1.359375 -1 -1.484375 -1.046875 -1.609375 -1.125 C -1.46875 -1.34375 -1.328125 -1.625 -1.328125 -2.03125 C -1.328125 -2.890625 -1.9375 -3.53125 -2.640625 -3.53125 C -3.078125 -3.53125 -3.390625 -3.28125 -3.515625 -3.171875 C -3.84375 -3.53125 -3.84375 -3.953125 -3.84375 -4.046875 C -3.8125 -4.015625 -3.765625 -3.9375 -3.609375 -3.9375 C -3.5 -3.9375 -3.34375 -4 -3.34375 -4.203125 C -3.34375 -4.328125 -3.421875 -4.46875 -3.609375 -4.46875 Z M -2.640625 -2.84375 C -2.4375 -2.84375 -1.5625 -2.84375 -1.5625 -2.03125 C -1.5625 -1.234375 -2.453125 -1.234375 -2.640625 -1.234375 C -2.890625 -1.234375 -3.1875 -1.25 -3.40625 -1.40625 C -3.59375 -1.546875 -3.71875 -1.78125 -3.71875 -2.03125 C -3.71875 -2.84375 -2.859375 -2.84375 -2.640625 -2.84375 Z M 0.6875 -3.84375 C 1.203125 -3.84375 1.609375 -3.140625 1.609375 -2.3125 C 1.609375 -1.421875 1.1875 -0.765625 0.6875 -0.765625 C 0.546875 -0.765625 -0.046875 -0.859375 -0.046875 -1.625 L -0.046875 -2.453125 C -0.046875 -2.734375 -0.03125 -3.84375 0.6875 -3.84375 Z M 0.6875 -3.84375 "/>
</g>
<g id="glyph-5-7">
<path d="M 0 -2.34375 L -0.28125 -2.34375 C -0.28125 -1.75 -0.28125 -1.65625 -0.6875 -1.65625 L -6.21875 -1.65625 L -6.125 -0.328125 L -5.84375 -0.328125 C -5.84375 -0.9375 -5.78125 -1.015625 -5.34375 -1.015625 L -0.6875 -1.015625 C -0.28125 -1.015625 -0.28125 -0.921875 -0.28125 -0.328125 L 0 -0.328125 C -0.015625 -0.75 -0.03125 -0.921875 -0.03125 -1.328125 C -0.03125 -1.75 -0.015625 -1.90625 0 -2.34375 Z M 0 -2.34375 "/>
</g>
<g id="glyph-5-8">
<path d="M -1.0625 -3.828125 C -1.125 -3.828125 -1.1875 -3.78125 -1.1875 -3.703125 C -1.1875 -3.609375 -1.125 -3.59375 -1.078125 -3.578125 C -0.171875 -3.28125 -0.15625 -2.46875 -0.15625 -2.34375 C -0.15625 -1.90625 -0.390625 -1.546875 -0.703125 -1.34375 C -1.140625 -1.046875 -1.671875 -1.03125 -2.046875 -1.03125 L -2.046875 -3.59375 C -2.046875 -3.78125 -2.046875 -3.828125 -2.25 -3.828125 C -3.171875 -3.828125 -4.015625 -3.328125 -4.015625 -2.171875 C -4.015625 -1.109375 -3.078125 -0.265625 -1.96875 -0.265625 C -0.796875 -0.265625 0.09375 -1.203125 0.09375 -2.296875 C 0.09375 -3.390625 -0.859375 -3.828125 -1.0625 -3.828125 Z M -2.265625 -3.21875 L -2.265625 -1.046875 C -3.65625 -1.125 -3.796875 -1.921875 -3.796875 -2.171875 C -3.796875 -2.671875 -3.421875 -3.203125 -2.265625 -3.21875 Z M -2.265625 -3.21875 "/>
</g>
<g id="glyph-5-9">
<path d="M 2.140625 -3.0625 C 2.09375 -3.0625 2.0625 -3.03125 2 -2.984375 C 0.9375 -1.828125 -0.671875 -1.46875 -2.25 -1.46875 C -3.625 -1.46875 -5.3125 -1.734375 -6.515625 -3 C -6.5625 -3.046875 -6.578125 -3.0625 -6.625 -3.0625 C -6.6875 -3.0625 -6.734375 -3.015625 -6.734375 -2.953125 C -6.734375 -2.84375 -6.078125 -2.03125 -5.109375 -1.546875 C -4.25 -1.125 -3.3125 -0.90625 -2.25 -0.90625 C -1.609375 -0.90625 -0.578125 -0.984375 0.46875 -1.484375 C 1.578125 -2.015625 2.234375 -2.84375 2.234375 -2.953125 C 2.234375 -3.015625 2.203125 -3.0625 2.140625 -3.0625 Z M 2.140625 -3.0625 "/>
</g>
<g id="glyph-5-10">
<path d="M 0 -7.46875 L -0.28125 -7.46875 C -0.28125 -7.015625 -0.28125 -6.796875 -0.5625 -6.78125 L -2.28125 -6.78125 C -3.0625 -6.78125 -3.3125 -6.78125 -3.640625 -6.484375 C -3.859375 -6.296875 -3.96875 -5.9375 -3.96875 -5.53125 C -3.96875 -4.875 -3.59375 -4.4375 -3.109375 -4.1875 C -3.640625 -4.078125 -3.96875 -3.71875 -3.96875 -2.96875 C -3.96875 -2.25 -3.5 -1.8125 -3.078125 -1.625 L -3.078125 -1.609375 L -3.96875 -1.609375 L -3.859375 -0.3125 L -3.59375 -0.3125 C -3.59375 -0.921875 -3.53125 -1 -3.078125 -1 L -0.6875 -1 C -0.28125 -1 -0.28125 -0.90625 -0.28125 -0.3125 L 0 -0.3125 C -0.015625 -0.734375 -0.03125 -0.90625 -0.03125 -1.34375 C -0.03125 -1.765625 -0.015625 -1.890625 0 -2.359375 L -0.28125 -2.359375 C -0.28125 -1.765625 -0.28125 -1.671875 -0.6875 -1.671875 L -2.328125 -1.671875 C -3.296875 -1.671875 -3.734375 -2.375 -3.734375 -2.90625 C -3.734375 -3.40625 -3.390625 -3.5625 -2.765625 -3.5625 L -0.6875 -3.5625 C -0.28125 -3.5625 -0.28125 -3.46875 -0.28125 -2.875 L 0 -2.875 C -0.015625 -3.296875 -0.03125 -3.46875 -0.03125 -3.890625 C -0.03125 -4.328125 -0.015625 -4.4375 0 -4.921875 L -0.28125 -4.921875 C -0.28125 -4.328125 -0.28125 -4.21875 -0.6875 -4.21875 L -2.328125 -4.21875 C -3.296875 -4.21875 -3.734375 -4.921875 -3.734375 -5.46875 C -3.734375 -5.953125 -3.390625 -6.109375 -2.765625 -6.109375 L -0.6875 -6.109375 C -0.28125 -6.109375 -0.28125 -6.015625 -0.28125 -5.421875 L 0 -5.421875 C -0.015625 -5.84375 -0.03125 -6.015625 -0.03125 -6.453125 C -0.03125 -6.875 -0.015625 -7 0 -7.46875 Z M 0 -7.46875 "/>
</g>
<g id="glyph-5-11">
<path d="M 0 -2.265625 L -0.28125 -2.265625 C -0.28125 -1.6875 -0.328125 -1.65625 -0.671875 -1.65625 L -3.96875 -1.65625 L -3.859375 -0.359375 L -3.59375 -0.359375 C -3.59375 -0.9375 -3.53125 -1.015625 -3.09375 -1.015625 L -0.6875 -1.015625 C -0.28125 -1.015625 -0.28125 -0.921875 -0.28125 -0.328125 L 0 -0.328125 C -0.015625 -0.71875 -0.03125 -0.921875 -0.03125 -1.3125 C -0.03125 -1.453125 -0.03125 -1.828125 0 -2.265625 Z M -5.40625 -1.765625 C -5.671875 -1.765625 -5.890625 -1.546875 -5.890625 -1.28125 C -5.890625 -1.015625 -5.671875 -0.796875 -5.40625 -0.796875 C -5.140625 -0.796875 -4.921875 -1.015625 -4.921875 -1.28125 C -4.921875 -1.546875 -5.140625 -1.765625 -5.40625 -1.765625 Z M -5.40625 -1.765625 "/>
</g>
<g id="glyph-5-12">
<path d="M -1.140625 -3.3125 C -1.546875 -3.3125 -1.796875 -3.140625 -2 -2.9375 C -2.296875 -2.640625 -2.359375 -2.3125 -2.484375 -1.65625 C -2.53125 -1.421875 -2.640625 -0.765625 -3.15625 -0.765625 C -3.4375 -0.765625 -3.828125 -0.96875 -3.828125 -1.78125 C -3.828125 -2.75 -3.078125 -2.8125 -2.859375 -2.828125 C -2.75 -2.84375 -2.6875 -2.84375 -2.6875 -2.953125 C -2.6875 -3.078125 -2.75 -3.078125 -2.921875 -3.078125 L -3.78125 -3.078125 C -3.9375 -3.078125 -4.015625 -3.078125 -4.015625 -2.984375 C -4.015625 -2.9375 -4.015625 -2.921875 -3.90625 -2.796875 C -3.890625 -2.78125 -3.8125 -2.703125 -3.765625 -2.640625 C -3.96875 -2.375 -4.015625 -2.09375 -4.015625 -1.78125 C -4.015625 -0.59375 -3.359375 -0.3125 -2.90625 -0.3125 C -2.625 -0.3125 -2.390625 -0.4375 -2.1875 -0.640625 C -1.90625 -0.9375 -1.84375 -1.28125 -1.765625 -1.734375 C -1.671875 -2.203125 -1.65625 -2.34375 -1.5 -2.546875 C -1.421875 -2.640625 -1.25 -2.859375 -0.921875 -2.859375 C -0.125 -2.859375 -0.125 -1.953125 -0.125 -1.828125 C -0.125 -0.921875 -0.890625 -0.6875 -1.375 -0.578125 C -1.46875 -0.546875 -1.515625 -0.53125 -1.515625 -0.4375 C -1.515625 -0.3125 -1.4375 -0.3125 -1.28125 -0.3125 L -0.140625 -0.3125 C 0.015625 -0.3125 0.09375 -0.3125 0.09375 -0.40625 C 0.09375 -0.46875 0.09375 -0.46875 -0.078125 -0.640625 C -0.140625 -0.671875 -0.25 -0.765625 -0.296875 -0.8125 C 0.078125 -1.1875 0.09375 -1.609375 0.09375 -1.828125 C 0.09375 -2.9375 -0.546875 -3.3125 -1.140625 -3.3125 Z M -1.140625 -3.3125 "/>
</g>
<g id="glyph-5-13">
<path d="M 0 -4.84375 L -0.28125 -4.84375 C -0.28125 -4.234375 -0.34375 -4.15625 -0.78125 -4.15625 L -6.21875 -4.15625 L -6.125 -2.828125 L -5.84375 -2.828125 C -5.84375 -3.4375 -5.78125 -3.515625 -5.34375 -3.515625 L -3.4375 -3.515625 C -3.484375 -3.46875 -3.96875 -3.0625 -3.96875 -2.375 C -3.96875 -1.265625 -3.078125 -0.3125 -1.921875 -0.3125 C -0.8125 -0.3125 0.09375 -1.203125 0.09375 -2.265625 C 0.09375 -2.921875 -0.28125 -3.328125 -0.46875 -3.484375 L 0.09375 -3.484375 Z M -1.078125 -3.484375 C -0.921875 -3.484375 -0.890625 -3.484375 -0.703125 -3.359375 C -0.296875 -3.078125 -0.125 -2.65625 -0.125 -2.3125 C -0.125 -1.921875 -0.34375 -1.5625 -0.71875 -1.328125 C -1.109375 -1.09375 -1.625 -1.078125 -1.921875 -1.078125 C -2.34375 -1.078125 -2.8125 -1.125 -3.171875 -1.359375 C -3.46875 -1.5625 -3.734375 -1.921875 -3.734375 -2.40625 C -3.734375 -2.78125 -3.546875 -3.140625 -3.203125 -3.375 C -3.0625 -3.484375 -3.0625 -3.484375 -2.890625 -3.484375 Z M -1.078125 -3.484375 "/>
</g>
<g id="glyph-5-14">
<path d="M -2.25 -2.671875 C -2.984375 -2.671875 -3.96875 -2.5625 -4.96875 -2.09375 C -6.078125 -1.5625 -6.734375 -0.734375 -6.734375 -0.625 C -6.734375 -0.53125 -6.65625 -0.515625 -6.625 -0.515625 C -6.578125 -0.515625 -6.5625 -0.53125 -6.5 -0.59375 C -6.03125 -1.125 -4.8125 -2.109375 -2.25 -2.109375 C -0.96875 -2.109375 0.8125 -1.875 2.03125 -0.578125 C 2.046875 -0.5625 2.09375 -0.515625 2.140625 -0.515625 C 2.15625 -0.515625 2.234375 -0.53125 2.234375 -0.625 C 2.234375 -0.734375 1.59375 -1.546875 0.609375 -2.03125 C -0.25 -2.453125 -1.171875 -2.671875 -2.25 -2.671875 Z M -2.25 -2.671875 "/>
</g>
</g>
<clipPath id="clip-0">
<path clip-rule="nonzero" d="M 184 30 L 255.449219 30 L 255.449219 38 L 184 38 Z M 184 30 "/>
</clipPath>
<clipPath id="clip-1">
<path clip-rule="nonzero" d="M 52.804688 8.167969 L 255.449219 8.167969 L 255.449219 119.242188 L 52.804688 119.242188 Z M 52.804688 8.167969 "/>
</clipPath>
<clipPath id="clip-2">
<path clip-rule="nonzero" d="M 52.804688 33 L 255.449219 33 L 255.449219 35 L 52.804688 35 Z M 52.804688 33 "/>
</clipPath>
<clipPath id="clip-3">
<path clip-rule="nonzero" d="M 184 30 L 255.449219 30 L 255.449219 31 L 184 31 Z M 184 30 "/>
</clipPath>
<clipPath id="clip-4">
<path clip-rule="nonzero" d="M 184 37 L 255.449219 37 L 255.449219 38 L 184 38 Z M 184 37 "/>
</clipPath>
<clipPath id="clip-5">
<path clip-rule="nonzero" d="M 52.804688 110 L 54 110 L 54 116 L 52.804688 116 Z M 52.804688 110 "/>
</clipPath>
<clipPath id="clip-6">
<path clip-rule="nonzero" d="M 52.804688 109 L 54 109 L 54 112 L 52.804688 112 Z M 52.804688 109 "/>
</clipPath>
<clipPath id="clip-7">
<path clip-rule="nonzero" d="M 52.804688 98 L 66 98 L 66 119.242188 L 52.804688 119.242188 Z M 52.804688 98 "/>
</clipPath>
</defs>
<path fill="none" stroke-width="0.3985" stroke-linecap="butt" stroke-linejoin="miter" stroke="rgb(79.998779%, 79.998779%, 79.998779%)" stroke-opacity="1" stroke-dasharray="2.98883 2.98883" stroke-miterlimit="10" d="M -0.0013125 11.108188 L 202.643219 11.108188 M -0.0013125 77.752719 L 202.643219 77.752719 M -0.0013125 85.155063 L 202.643219 85.155063 " transform="matrix(1, 0, 0, -1, 52.806, 119.241)"/>
<path fill="none" stroke-width="0.19925" stroke-linecap="butt" stroke-linejoin="miter" stroke="rgb(50%, 50%, 50%)" stroke-opacity="1" stroke-miterlimit="10" d="M -0.0013125 11.108188 L 4.252594 11.108188 M -0.0013125 77.752719 L 4.252594 77.752719 M -0.0013125 85.155063 L 4.252594 85.155063 M 202.643219 11.108188 L 198.389313 11.108188 M 202.643219 77.752719 L 198.389313 77.752719 M 202.643219 85.155063 L 198.389313 85.155063 " transform="matrix(1, 0, 0, -1, 52.806, 119.241)"/>
<path fill="none" stroke-width="0.3985" stroke-linecap="butt" stroke-linejoin="miter" stroke="rgb(0%, 0%, 0%)" stroke-opacity="1" stroke-miterlimit="10" d="M -0.0013125 -0.0011875 L -0.0013125 111.073031 L 202.643219 111.073031 L 202.643219 -0.0011875 Z M -0.0013125 -0.0011875 " transform="matrix(1, 0, 0, -1, 52.806, 119.241)"/>
<g fill="rgb(0%, 0%, 0%)" fill-opacity="1">
<use xlink:href="#glyph-0-0" x="44.677" y="111.021"/>
</g>
<g fill="rgb(0%, 0%, 0%)" fill-opacity="1">
<use xlink:href="#glyph-1-0" x="27.088" y="44.785"/>
</g>
<g fill="rgb(0%, 0%, 0%)" fill-opacity="1">
<use xlink:href="#glyph-2-0" x="31.696" y="44.785"/>
</g>
<g fill="rgb(0%, 0%, 0%)" fill-opacity="1">
<use xlink:href="#glyph-1-1" x="34.255" y="44.785"/>
</g>
<g fill="rgb(0%, 0%, 0%)" fill-opacity="1">
<use xlink:href="#glyph-2-1" x="40.399" y="44.785"/>
</g>
<g fill="rgb(0%, 0%, 0%)" fill-opacity="1">
<use xlink:href="#glyph-3-0" x="44.969" y="40.976"/>
</g>
<g fill="rgb(0%, 0%, 0%)" fill-opacity="1">
<use xlink:href="#glyph-2-1" x="40.399" y="37.38"/>
</g>
<g fill="rgb(0%, 0%, 0%)" fill-opacity="1">
<use xlink:href="#glyph-3-0" x="44.968" y="33.571"/>
</g>
<g clip-path="url(#clip-0)">
<path fill-rule="nonzero" fill="rgb(76.699829%, 85.444641%, 70.028687%)" fill-opacity="0.8" d="M 184.523438 37.789062 L 184.523438 30.382812 L 255.449219 30.382812 L 255.449219 37.789062 Z M 184.523438 37.789062 "/>
</g>
<g clip-path="url(#clip-1)">
<path fill="none" stroke-width="0.79701" stroke-linecap="butt" stroke-linejoin="miter" stroke="rgb(9.01947%, 43.528748%, 75.489807%)" stroke-opacity="1" stroke-miterlimit="10" d="M -0.0013125 11.108188 L 1.018219 11.186313 L 2.03775 11.45975 L 3.053375 11.905063 L 4.072906 12.514438 L 5.092438 13.27225 L 6.108063 14.190219 L 7.127594 15.241 L 8.147125 16.424594 L 9.16275 17.725375 L 10.182281 19.151156 L 11.201813 20.6785 L 12.217438 22.307406 L 13.236969 24.033969 L 14.2565 25.830844 L 15.276031 27.713656 L 16.291656 29.658969 L 17.311188 31.674594 L 18.330719 33.733188 L 19.346344 35.842563 L 20.365875 37.991 L 21.385406 40.170688 L 22.401031 42.373813 L 23.420563 44.600375 L 24.440094 46.83475 L 25.455719 49.076938 L 26.47525 51.319125 L 27.494781 53.565219 L 28.510406 55.791781 L 29.529938 58.010531 L 30.549469 60.205844 L 31.565094 62.369906 L 32.584625 64.514438 L 33.604156 66.623813 L 34.619781 68.690219 L 35.639313 70.721469 L 36.658844 72.705844 L 37.674469 74.64725 L 38.694 76.533969 L 39.713531 78.369906 L 40.733063 80.14725 L 41.748688 81.869906 L 42.768219 83.530063 L 43.78775 85.131625 L 44.803375 86.670688 L 45.822906 88.143344 L 46.842438 89.549594 L 47.858063 90.893344 L 48.877594 92.166781 L 49.897125 93.369906 L 50.91275 94.510531 L 51.932281 95.580844 L 52.951813 96.58475 L 53.967438 97.518344 L 54.986969 98.385531 L 56.0065 99.186313 L 57.022125 99.920688 L 58.041656 100.592563 L 59.061188 101.190219 L 60.076813 101.733188 L 61.096344 102.213656 L 62.115875 102.631625 L 63.1315 102.991 L 64.151031 103.283969 L 65.170563 103.526156 L 66.186188 103.713656 L 67.205719 103.846469 L 68.22525 103.936313 L 69.244781 103.967563 L 70.260406 103.948031 L 71.279938 103.885531 L 72.299469 103.783969 L 73.315094 103.635531 L 74.334625 103.448031 L 75.354156 103.221469 L 76.369781 102.963656 L 77.389313 102.666781 L 78.408844 102.342563 L 79.424469 101.987094 L 80.444 101.600375 L 81.463531 101.190219 L 82.479156 100.760531 L 83.498688 100.307406 L 84.518219 99.826938 L 85.533844 99.338656 L 86.553375 98.830844 L 87.572906 98.311313 L 88.588531 97.780063 L 89.608063 97.233188 L 90.627594 96.6785 L 91.643219 96.123813 L 92.66275 95.557406 L 93.682281 94.987094 L 94.697906 94.420688 L 95.717438 93.846469 L 97.7565 92.713656 L 98.772125 92.151156 L 99.791656 91.588656 L 100.811188 91.041781 L 101.826813 90.491 L 102.846344 89.955844 L 103.865875 89.432406 L 104.8815 88.912875 L 105.901031 88.405063 L 106.920563 87.908969 L 107.936188 87.4285 L 108.955719 86.963656 L 109.97525 86.506625 L 110.990875 86.069125 L 112.010406 85.643344 L 113.029938 85.233188 L 114.045563 84.838656 L 115.065094 84.463656 L 116.084625 84.104281 L 117.10025 83.760531 L 118.119781 83.432406 L 119.139313 83.123813 L 120.154938 82.830844 L 121.174469 82.557406 L 122.194 82.299594 L 123.213531 82.057406 L 124.229156 81.83475 L 125.248688 81.627719 L 126.268219 81.436313 L 127.283844 81.264438 L 128.303375 81.108188 L 129.322906 80.967563 L 130.338531 80.842563 L 131.358063 80.737094 L 132.377594 80.643344 L 133.393219 80.565219 L 134.41275 80.498813 L 135.432281 80.448031 L 136.447906 80.412875 L 137.467438 80.389438 L 138.486969 80.377719 L 139.502594 80.381625 L 140.522125 80.393344 L 141.541656 80.420688 L 142.557281 80.455844 L 143.576813 80.498813 L 144.596344 80.557406 L 145.611969 80.619906 L 146.6315 80.694125 L 147.651031 80.776156 L 148.670563 80.866 L 149.686188 80.95975 L 150.705719 81.065219 L 151.72525 81.174594 L 152.740875 81.287875 L 154.779938 81.530063 L 155.795563 81.658969 L 157.834625 81.924594 L 158.85025 82.065219 L 159.869781 82.201938 L 160.889313 82.346469 L 161.904938 82.487094 L 163.944 82.776156 L 164.959625 82.920688 L 166.998688 83.20975 L 168.014313 83.354281 L 170.053375 83.635531 L 171.069 83.776156 L 172.088531 83.912875 L 173.108063 84.045688 L 174.123688 84.1785 L 175.143219 84.307406 L 176.16275 84.432406 L 177.178375 84.557406 L 179.217438 84.791781 L 180.236969 84.905063 L 181.252594 85.014438 L 182.272125 85.119906 L 183.291656 85.217563 L 184.307281 85.315219 L 185.326813 85.408969 L 186.346344 85.494906 L 187.361969 85.580844 L 188.3815 85.658969 L 189.401031 85.733188 L 190.416656 85.8035 L 191.436188 85.869906 L 192.455719 85.932406 L 193.471344 85.991 L 195.510406 86.092563 L 196.526031 86.135531 L 197.545563 86.1785 L 198.565094 86.213656 L 199.580719 86.244906 L 200.60025 86.276156 L 201.619781 86.299594 L 202.635406 86.319125 " transform="matrix(1, 0, 0, -1, 52.806, 119.241)"/>
</g>
<g clip-path="url(#clip-2)">
<path fill="none" stroke-width="0.3985" stroke-linecap="butt" stroke-linejoin="miter" stroke="rgb(50%, 50%, 50%)" stroke-opacity="1" stroke-dasharray="2.98883 2.98883" stroke-miterlimit="10" d="M -0.0013125 85.155063 L 202.639313 85.155063 " transform="matrix(1, 0, 0, -1, 52.806, 119.241)"/>
</g>
<g clip-path="url(#clip-3)">
<path fill="none" stroke-width="0.3985" stroke-linecap="butt" stroke-linejoin="miter" stroke="rgb(23.200989%, 48.974609%, 14.593506%)" stroke-opacity="1" stroke-dasharray="2.98883 2.98883" stroke-miterlimit="10" d="M 131.717438 88.858188 L 202.643219 88.858188 " transform="matrix(1, 0, 0, -1, 52.806, 119.241)"/>
</g>
<g clip-path="url(#clip-4)">
<path fill="none" stroke-width="0.3985" stroke-linecap="butt" stroke-linejoin="miter" stroke="rgb(23.200989%, 48.974609%, 14.593506%)" stroke-opacity="1" stroke-dasharray="2.98883 2.98883" stroke-miterlimit="10" d="M 131.717438 81.451938 L 202.643219 81.451938 " transform="matrix(1, 0, 0, -1, 52.806, 119.241)"/>
</g>
<g fill="rgb(23.200989%, 48.974609%, 14.593506%)" fill-opacity="1">
<use xlink:href="#glyph-4-0" x="185.403" y="26.042"/>
<use xlink:href="#glyph-4-1" x="188.742472" y="26.042"/>
<use xlink:href="#glyph-4-2" x="192.504359" y="26.042"/>
<use xlink:href="#glyph-4-2" x="195.79601" y="26.042"/>
<use xlink:href="#glyph-4-3" x="199.087662" y="26.042"/>
<use xlink:href="#glyph-4-1" x="201.438841" y="26.042"/>
<use xlink:href="#glyph-4-4" x="205.200728" y="26.042"/>
<use xlink:href="#glyph-4-1" x="212.254267" y="26.042"/>
<use xlink:href="#glyph-4-5" x="216.016154" y="26.042"/>
</g>
<g fill="rgb(23.200989%, 48.974609%, 14.593506%)" fill-opacity="1">
<use xlink:href="#glyph-4-2" x="220.47941" y="26.042"/>
</g>
<g fill="rgb(23.200989%, 48.974609%, 14.593506%)" fill-opacity="1">
<use xlink:href="#glyph-4-6" x="226.584507" y="26.042"/>
<use xlink:href="#glyph-4-7" x="232.697573" y="26.042"/>
</g>
<g fill="rgb(23.200989%, 48.974609%, 14.593506%)" fill-opacity="1">
<use xlink:href="#glyph-4-5" x="235.056723" y="26.042"/>
<use xlink:href="#glyph-4-8" x="239.759082" y="26.042"/>
<use xlink:href="#glyph-4-9" x="244.461441" y="26.042"/>
</g>
<g fill="rgb(23.200989%, 48.974609%, 14.593506%)" fill-opacity="1">
<use xlink:href="#glyph-4-6" x="248.462431" y="26.042"/>
</g>
<g clip-path="url(#clip-5)">
<path fill="none" stroke-width="0.79701" stroke-linecap="butt" stroke-linejoin="miter" stroke="rgb(0%, 0%, 0%)" stroke-opacity="1" stroke-miterlimit="10" d="M -0.0013125 3.701938 L -0.0013125 8.073031 " transform="matrix(1, 0, 0, -1, 52.806, 119.241)"/>
</g>
<g clip-path="url(#clip-6)">
<path fill-rule="nonzero" fill="rgb(0%, 0%, 0%)" fill-opacity="1" d="M 52.804688 109.269531 L 51.832031 111.828125 L 52.804688 110.96875 L 53.777344 111.828125 Z M 52.804688 109.269531 "/>
</g>
<g clip-path="url(#clip-7)">
<path fill="none" stroke-width="0.79701" stroke-linecap="butt" stroke-linejoin="miter" stroke="rgb(0%, 0%, 0%)" stroke-opacity="1" stroke-miterlimit="10" d="M 3.845539 0.0013125 L 1.286945 0.973969 L 2.14632 0.0013125 L 1.286945 -0.971344 Z M 3.845539 0.0013125 " transform="matrix(0, -1, -1, 0, 52.806, 113.11507)"/>
</g>
<g fill="rgb(0%, 0%, 0%)" fill-opacity="1">
<use xlink:href="#glyph-0-1" x="143.632" y="128.831"/>
<use xlink:href="#glyph-0-2" x="150.285069" y="128.831"/>
<use xlink:href="#glyph-0-3" x="152.849459" y="128.831"/>
<use xlink:href="#glyph-0-4" x="160.524698" y="128.831"/>
</g>
<g fill="rgb(0%, 0%, 0%)" fill-opacity="1">
<use xlink:href="#glyph-5-0" x="18.015" y="114.257"/>
<use xlink:href="#glyph-5-1" x="18.015" y="107.478402"/>
<use xlink:href="#glyph-5-2" x="18.015" y="102.869672"/>
<use xlink:href="#glyph-5-1" x="18.015" y="99.283112"/>
<use xlink:href="#glyph-5-3" x="18.015" y="94.674382"/>
</g>
<g fill="rgb(0%, 0%, 0%)" fill-opacity="1">
<use xlink:href="#glyph-5-4" x="18.015" y="88.003381"/>
<use xlink:href="#glyph-5-5" x="18.015" y="83.394651"/>
<use xlink:href="#glyph-5-6" x="18.015" y="78.274837"/>
<use xlink:href="#glyph-5-7" x="18.015" y="73.666107"/>
<use xlink:href="#glyph-5-8" x="18.015" y="71.101717"/>
</g>
<g fill="rgb(0%, 0%, 0%)" fill-opacity="1">
<use xlink:href="#glyph-5-9" x="18.015" y="63.928597"/>
<use xlink:href="#glyph-5-5" x="18.015" y="60.342037"/>
<use xlink:href="#glyph-5-1" x="18.015" y="55.222222"/>
<use xlink:href="#glyph-5-3" x="18.015" y="50.613493"/>
<use xlink:href="#glyph-5-10" x="18.015" y="47.009"/>
<use xlink:href="#glyph-5-4" x="18.015" y="39.333762"/>
</g>
<g fill="rgb(0%, 0%, 0%)" fill-opacity="1">
<use xlink:href="#glyph-5-7" x="18.015" y="34.716066"/>
<use xlink:href="#glyph-5-11" x="18.015" y="32.151675"/>
<use xlink:href="#glyph-5-12" x="18.015" y="29.587285"/>
<use xlink:href="#glyph-5-8" x="18.015" y="25.955893"/>
<use xlink:href="#glyph-5-13" x="18.015" y="21.858248"/>
<use xlink:href="#glyph-5-14" x="18.015" y="16.738434"/>
</g>
</svg>
